<?xml version="1.0" encoding="UTF-8"?>
<svg
   width="103.32946mm"
   height="149.59009mm"
   viewBox="0 0 103.32946 149.59009"
   version="1.1"
   xmlns="http://www.w3.org/2000/svg">
  <path
     style="fill:#27945c;stroke:#27945c;stroke-width:0.264583"
     d="M 38.654358,116.43573 18.10863,106.75906 v -5.73262 l 20.545728,-9.676667 v 5.27401 l -13.29969,6.145377 q -0.91722,0.41274 -1.83444,0.73377 -0.871359,0.27517 -1.37583,0.36689 0.504471,0.0917 1.421691,0.36689 0.91722,0.27516 1.788579,0.68791 l 13.29969,6.14538 z m 2.003729,7.61293 16.051352,-43.109337 h 5.96193 L 46.620017,124.04866 Z m 24.017011,-7.61293 v -5.27401 l 13.29969,-6.14538 q 0.91722,-0.41274 1.78858,-0.68791 0.91722,-0.27517 1.42169,-0.41275 -0.50447,-0.0917 -1.42169,-0.36689 -0.91722,-0.27516 -1.78858,-0.64205 l -13.29969,-6.191237 v -5.36573 l 20.54573,9.676667 v 5.73262 z" />
  <g transform="translate(-53.875322,-65.076477)">
    <path
       style="fill:none;stroke:#27945c;stroke-width:8;stroke-linecap:butt;stroke-linejoin:round"
       d="M 105.54005,210.66656 H 82.834312 L 57.875322,185.70757 V 152.9489 l 17.67928,-23.57237 9.1863,-24.26568 20.799148,-8.319666 20.79915,8.319666 9.1863,24.26568 17.67928,23.57237 v 32.75867 l -24.95899,24.95899 z" />
    <path
       style="fill:#27945c"
       d="m 101.15233,99.323744 c 0,0 -2.059648,-4.40346 -2.135368,-4.40256 -16.35204,0.20164 -34.14045,-20.549291 -34.05655,-29.818651 14.87736,-0.190923 28.09242,-0.101361 41.028818,29.260831 z" />
    <path
       style="fill:none;stroke:#27945c;stroke-width:7.99999;stroke-linecap:butt;stroke-linejoin:round"
       d="M 105.98923,96.117414 118.65011,78.868001" />
  </g>
</svg>
