<?xml version="1.0" encoding="UTF-8"?>
<svg
   width="176.46046mm"
   height="211.77211mm"
   viewBox="0 0 176.46046 211.77211"
   version="1.1"
   xmlns="http://www.w3.org/2000/svg">
  <path
     style="font-weight:800;font-size:45.8611px;font-family:'JetBrains Mono';letter-spacing:-1.05833px;fill:#27945c;stroke-width:1.97874"
     d="m 0,211.3035 v -34.20796 h 6.732493 v 13.3083 h 7.540391 v -13.3083 h 6.732492 V 211.3035 H 14.272884 V 196.72998 H 6.732493 v 14.57352 z m 32.17788,0 -8.123874,-34.20796 h 6.95691 l 4.533211,21.60257 q 0.224416,1.12465 0.538599,2.85848 0.359067,1.73382 0.538599,2.95219 0.179534,-1.21837 0.448833,-2.95219 0.2693,-1.73383 0.493716,-2.90534 l 4.398562,-21.55571 h 6.777375 l -8.034107,34.20796 z m 21.809843,0 v -34.20796 h 6.732492 v 27.88184 h 13.240568 v 6.32612 z m 36.666208,0 q -3.77019,0 -5.9246,-2.24929 -2.154387,-2.24928 -2.154387,-6.18554 v -11.01215 h -6.642725 v -6.32613 h 6.642725 v -7.26334 h 6.732487 v 7.26334 h 9.6499 v 6.32613 h -9.6499 v 10.77784 q 0,1.03094 0.49372,1.68697 0.53859,0.65605 1.52603,0.65605 h 7.40574 v 6.32612 z m 23.470509,0.46861 q -3.27647,0 -5.74505,-1.26522 -2.4237,-1.31209 -3.7702,-3.60825 -1.30161,-2.343 -1.30161,-5.43578 v -6.09183 q 0,-3.09277 1.30161,-5.38893 1.3465,-2.343 3.7702,-3.60823 2.46858,-1.31209 5.74505,-1.31209 3.27648,0 5.6553,1.31209 2.4237,1.26523 3.72531,3.60823 1.34651,2.29616 1.34651,5.38893 v 4.77974 h -15.12568 v 1.31209 q 0,2.43673 1.0772,3.56138 1.12209,1.12464 3.32136,1.12464 1.43627,0 2.51347,-0.4686 1.0772,-0.4686 1.25674,-1.40581 h 6.59784 q -0.71814,3.37394 -3.54578,5.43579 -2.82765,2.06185 -6.82227,2.06185 z m -4.39856,-16.40108 v 0.60919 l 8.70736,-0.0937 v -0.60918 q 0,-2.38987 -1.0772,-3.70196 -1.03231,-1.31208 -3.2316,-1.31208 -2.19927,0 -3.32136,1.35894 -1.0772,1.35895 -1.0772,3.74882 z m 30.65186,16.40108 q -3.27649,0 -5.74507,-1.26522 -2.46858,-1.31209 -3.81508,-3.60825 -1.34649,-2.343 -1.34649,-5.43578 v -6.09183 q 0,-3.13963 1.34649,-5.43579 1.3465,-2.29614 3.81508,-3.56137 2.46858,-1.31209 5.74507,-1.31209 4.89226,0 7.80969,2.57732 2.91741,2.57731 3.09694,7.02902 h -6.55296 q -0.13465,-1.64009 -1.3465,-2.57731 -1.16696,-0.9372 -3.00717,-0.9372 -2.01975,0 -3.09695,1.07779 -1.07721,1.07778 -1.07721,3.13963 v 6.09183 q 0,2.01499 1.07721,3.13964 1.0772,1.07778 3.09695,1.07778 1.84021,0 3.00717,-0.89035 1.21185,-0.9372 1.3465,-2.62417 h 6.55296 q -0.17953,4.45172 -3.09694,7.02904 -2.91743,2.57731 -7.80969,2.57731 z m 14.98759,-0.46861 v -34.20796 h 6.73249 v 8.43485 l -0.22441,4.63916 q 0.58347,-2.34302 2.33392,-3.70196 1.79534,-1.40581 4.3088,-1.40581 3.59066,0 5.74506,2.62418 2.19927,2.62417 2.19927,6.98216 v 16.63538 h -6.73248 v -15.93247 q 0,-2.01499 -1.03232,-3.09277 -0.98743,-1.12465 -2.78277,-1.12465 -1.79533,0 -2.82764,1.12465 -0.98743,1.07778 -0.98743,3.09277 v 15.93247 z" />
  <path
     style="fill:#27945c;stroke:#27945c;stroke-width:0.264583"
     d="m 75.21986,116.43573 -20.545728,-9.67667 v -5.73262 L 75.21986,91.349773 v 5.27401 l -13.29969,6.145377 q -0.91722,0.41274 -1.83444,0.73377 -0.871359,0.27517 -1.37583,0.36689 0.504471,0.0917 1.421691,0.36689 0.91722,0.27516 1.788579,0.68791 L 75.21986,111.07 Z m 2.003729,7.61293 16.051352,-43.109337 h 5.96193 L 83.185519,124.04866 Z m 24.017011,-7.61293 v -5.27401 l 13.29969,-6.14538 q 0.91722,-0.41274 1.78858,-0.68791 0.91722,-0.27517 1.42169,-0.41275 -0.50447,-0.0917 -1.42169,-0.36689 -0.91722,-0.27516 -1.78858,-0.64205 L 101.2406,96.715503 v -5.36573 l 20.54573,9.676667 v 5.73262 z" />
  <g transform="translate(-17.30982,-65.076477)">
    <path
       style="fill:none;stroke:#27945c;stroke-width:8;stroke-linecap:butt;stroke-linejoin:round"
       d="M 105.54005,210.66656 H 82.834312 L 57.875322,185.70757 V 152.9489 l 17.67928,-23.57237 9.1863,-24.26568 20.799148,-8.319666 20.79915,8.319666 9.1863,24.26568 17.67928,23.57237 v 32.75867 l -24.95899,24.95899 z" />
    <path
       style="fill:#27945c"
       d="m 101.15233,99.323744 c 0,0 -2.059648,-4.40346 -2.135368,-4.40256 -16.35204,0.20164 -34.14045,-20.549291 -34.05655,-29.818651 14.87736,-0.190923 28.09242,-0.101361 41.028818,29.260831 z" />
    <path
       style="fill:none;stroke:#27945c;stroke-width:7.99999;stroke-linecap:butt;stroke-linejoin:round"
       d="M 105.98923,96.117414 118.65011,78.868001" />
  </g>
</svg>
