<svg xmlns="http://www.w3.org/2000/svg" viewBox="2.0299999713897705 14.890000343322754 505.2200012207031 47.65999984741211" data-asc="1.0478515625" width="505.2200012207031" height="47.65999984741211"><defs/><g fill="#fafafa"><g transform="translate(0, 0)"><path d="M7.10 25.98L2.03 25.98L2.03 52.39L7.40 52.39L7.40 32.10Q7.54 31.74 7.73 31.45Q7.91 31.15 8.15 30.93Q8.47 30.62 8.92 30.46Q9.38 30.30 9.96 30.30Q10.50 30.30 10.93 30.44Q11.35 30.59 11.67 30.91Q11.99 31.23 12.15 31.77Q12.30 32.32 12.30 33.11L12.30 52.39L17.58 52.39L17.58 32.79Q17.58 32.54 17.58 32.41Q17.58 32.28 17.58 32.18Q17.68 31.76 17.87 31.43Q18.07 31.10 18.36 30.86Q18.68 30.59 19.09 30.44Q19.51 30.30 20.07 30.30Q20.61 30.30 21.06 30.44Q21.51 30.59 21.83 30.91Q22.14 31.25 22.31 31.80Q22.49 32.35 22.49 33.13L22.49 52.39L27.86 52.39L27.86 33.18Q27.86 31.10 27.43 29.63Q27.00 28.15 26.22 27.22Q25.44 26.34 24.38 25.92Q23.32 25.49 22.05 25.49Q21.07 25.49 20.25 25.73Q19.43 25.98 18.77 26.42Q18.26 26.76 17.82 27.25Q17.38 27.73 17.04 28.30Q16.80 27.69 16.46 27.21Q16.11 26.73 15.67 26.39Q15.11 25.93 14.33 25.71Q13.55 25.49 12.57 25.49Q10.69 25.49 9.36 26.39Q8.03 27.29 7.28 28.88L7.10 25.98ZM46.12 52.88Q49.98 52.88 52.70 51.37Q55.42 49.85 56.74 47.95L53.61 44.92Q52.39 46.48 50.51 47.33Q48.63 48.17 46.46 48.17Q44.87 48.17 43.54 47.63Q42.21 47.09 41.24 46.12Q40.26 45.19 39.70 44.02Q39.14 42.85 38.87 41.11L38.87 40.99L57.18 40.99L57.18 38.48Q57.18 35.64 56.42 33.25Q55.66 30.86 54.17 29.13Q52.69 27.42 50.49 26.45Q48.29 25.49 45.43 25.49Q42.87 25.49 40.61 26.45Q38.35 27.42 36.65 29.20Q34.94 30.98 33.96 33.50Q32.98 36.01 32.98 39.11L32.98 40.11Q32.98 42.82 33.92 45.15Q34.86 47.49 36.60 49.19Q38.33 50.93 40.76 51.90Q43.19 52.88 46.12 52.88M45.41 30.22Q46.88 30.22 47.99 30.73Q49.10 31.23 49.83 32.06Q50.59 32.91 51.00 34.05Q51.42 35.18 51.42 36.33L51.42 36.72L38.99 36.72Q39.26 35.21 39.82 34.01Q40.38 32.81 41.21 31.96Q42.04 31.13 43.10 30.68Q44.17 30.22 45.41 30.22ZM76.12 52.88Q79.98 52.88 82.70 51.37Q85.42 49.85 86.74 47.95L83.62 44.92Q82.40 46.48 80.52 47.33Q78.64 48.17 76.46 48.17Q74.88 48.17 73.55 47.63Q72.22 47.09 71.24 46.12Q70.26 45.19 69.70 44.02Q69.14 42.85 68.87 41.11L68.87 40.99L87.18 40.99L87.18 38.48Q87.18 35.64 86.43 33.25Q85.67 30.86 84.18 29.13Q82.69 27.42 80.49 26.45Q78.30 25.49 75.44 25.49Q72.88 25.49 70.62 26.45Q68.36 27.42 66.65 29.20Q64.94 30.98 63.96 33.50Q62.99 36.01 62.99 39.11L62.99 40.11Q62.99 42.82 63.93 45.15Q64.87 47.49 66.60 49.19Q68.33 50.93 70.76 51.90Q73.19 52.88 76.12 52.88M75.42 30.22Q76.88 30.22 77.99 30.73Q79.10 31.23 79.83 32.06Q80.59 32.91 81.01 34.05Q81.42 35.18 81.42 36.33L81.42 36.72L68.99 36.72Q69.26 35.21 69.82 34.01Q70.39 32.81 71.22 31.96Q72.05 31.13 73.11 30.68Q74.17 30.22 75.42 30.22ZM105.52 19.53L99.66 19.53L99.66 25.98L93.26 25.98L93.26 30.35L99.66 30.35L99.66 43.33Q99.66 45.87 100.33 47.68Q101.00 49.49 102.20 50.63Q103.39 51.81 105.07 52.36Q106.74 52.91 108.74 52.91Q109.84 52.91 110.95 52.80Q112.06 52.69 113.09 52.49Q114.11 52.29 115.00 52.01Q115.89 51.73 116.53 51.34L115.89 47.31Q115.45 47.41 114.81 47.55Q114.16 47.68 113.43 47.78Q112.67 47.90 111.87 47.97Q111.06 48.05 110.30 48.05Q109.25 48.05 108.37 47.80Q107.50 47.56 106.86 46.97Q106.23 46.41 105.87 45.42Q105.52 44.43 105.52 42.97L105.52 30.35L115.45 30.35L115.45 25.98L105.52 25.98L105.52 19.53ZM141.11 52.39L146.41 52.39L146.41 25.98L140.55 25.98L140.55 44.68Q140.21 45.41 139.72 46.01Q139.23 46.61 138.60 47.05Q137.84 47.53 136.84 47.81Q135.84 48.10 134.57 48.10Q133.35 48.10 132.45 47.78Q131.54 47.46 130.96 46.70Q130.37 45.97 130.10 44.74Q129.83 43.51 129.83 41.67L129.83 25.98L124.00 25.98L124.00 41.63Q124.00 44.60 124.66 46.74Q125.32 48.88 126.51 50.24Q127.73 51.61 129.43 52.26Q131.13 52.91 133.18 52.91Q135.57 52.91 137.50 51.79Q139.43 50.68 140.77 48.71L141.11 52.39ZM153.86 62.55L159.69 62.55L159.69 50Q160.16 50.51 160.69 50.95Q161.23 51.39 161.82 51.73Q162.82 52.29 164.00 52.59Q165.19 52.88 166.60 52.88Q169.09 52.88 171.02 51.86Q172.95 50.83 174.27 49.02Q175.59 47.24 176.26 44.78Q176.93 42.31 176.93 39.45L176.93 38.94Q176.93 35.96 176.25 33.48Q175.56 31.01 174.27 29.22Q172.95 27.44 171.01 26.46Q169.07 25.49 166.53 25.49Q165.23 25.49 164.09 25.77Q162.94 26.05 161.99 26.56Q161.25 26.95 160.62 27.49Q159.99 28.03 159.45 28.69L159.23 25.98L153.86 25.98L153.86 62.55M171.09 38.94L171.09 39.45Q171.09 41.21 170.75 42.79Q170.41 44.36 169.65 45.58Q168.92 46.78 167.76 47.47Q166.60 48.17 164.97 48.17Q163.96 48.17 163.13 47.94Q162.30 47.71 161.65 47.31Q161.01 46.90 160.52 46.34Q160.03 45.78 159.69 45.09L159.69 33.35Q160.08 32.62 160.61 32.03Q161.13 31.45 161.84 31.05Q162.45 30.69 163.23 30.49Q164.01 30.30 164.92 30.30Q166.55 30.30 167.72 30.98Q168.90 31.67 169.65 32.84Q170.39 34.01 170.74 35.58Q171.09 37.16 171.09 38.94ZM208.47 32.64Q208.57 29.13 207.78 26.25Q206.98 23.36 205.42 21.31Q203.81 19.26 201.49 18.14Q199.17 17.02 196.24 17.02Q193.04 17.02 190.38 18.44Q187.72 19.87 185.77 22.36Q183.79 24.90 182.63 28.36Q181.47 31.81 181.32 35.67Q181.20 39.50 181.96 42.63Q182.71 45.75 184.38 47.95Q186.04 50.17 188.61 51.38Q191.19 52.59 194.78 52.59Q195.58 52.59 196.47 52.48Q197.36 52.37 198.24 52.12Q199.12 51.90 199.93 51.56Q200.73 51.22 201.37 50.76L200.59 47.66Q200.02 47.97 199.34 48.23Q198.66 48.49 197.92 48.68Q197.14 48.88 196.36 48.99Q195.58 49.10 194.85 49.10Q192.31 49.10 190.39 48.23Q188.48 47.36 187.23 45.65Q185.99 43.97 185.40 41.47Q184.81 38.96 184.94 35.67Q185.03 32.30 185.89 29.48Q186.74 26.66 188.26 24.63Q189.70 22.66 191.66 21.57Q193.63 20.48 196.07 20.48Q198.34 20.48 200.09 21.26Q201.83 22.05 203.00 23.58Q204.17 25.12 204.74 27.42Q205.30 29.71 205.20 32.74Q205.20 34.62 204.98 36.23Q204.76 37.84 204.32 39.01Q203.91 40.19 203.31 40.86Q202.71 41.53 201.98 41.53Q201.66 41.53 201.38 41.46Q201.10 41.38 200.90 41.11Q200.68 40.84 200.59 40.36Q200.49 39.87 200.54 39.04L201.61 26.42Q200.90 25.61 199.74 25.01Q198.58 24.41 196.80 24.41Q195.00 24.41 193.53 25.21Q192.07 26.00 190.97 27.47Q189.87 28.93 189.18 31.02Q188.50 33.11 188.26 35.69Q188.06 37.72 188.31 39.39Q188.55 41.06 189.18 42.24Q189.79 43.46 190.81 44.10Q191.82 44.75 193.16 44.75Q193.95 44.75 194.64 44.52Q195.34 44.29 195.95 43.85Q196.41 43.51 196.83 43.08Q197.24 42.65 197.58 42.14Q197.80 42.68 198.12 43.12Q198.44 43.55 198.83 43.90Q199.34 44.34 200 44.56Q200.66 44.78 201.44 44.78Q203.30 44.78 204.60 43.69Q205.91 42.60 206.74 40.87Q207.57 39.14 207.98 36.96Q208.40 34.79 208.47 32.64M191.97 35.69Q192.14 33.84 192.53 32.39Q192.92 30.93 193.53 29.93Q194.14 28.91 195.02 28.38Q195.90 27.86 197.07 27.86Q197.39 27.86 197.64 27.91Q197.90 27.95 198.10 28.03L197.17 38.82L197.14 39.11Q196.92 39.55 196.66 39.88Q196.39 40.21 196.12 40.45Q195.68 40.84 195.18 41.00Q194.68 41.16 194.14 41.16Q193.55 41.16 193.10 40.81Q192.65 40.45 192.38 39.72Q192.11 39.04 192.00 38.01Q191.89 36.99 191.97 35.69ZM219.65 29.74L219.65 14.89L213.82 14.89L213.82 52.39L219.65 52.39L219.65 33.28Q220.07 32.64 220.62 32.13Q221.17 31.62 221.80 31.25Q222.56 30.79 223.47 30.54Q224.39 30.30 225.42 30.30Q226.73 30.30 227.75 30.65Q228.76 31.01 229.47 31.74Q230.15 32.42 230.51 33.52Q230.86 34.62 230.86 36.08L230.86 52.39L236.69 52.39L236.69 36.13Q236.69 33.33 236.02 31.31Q235.35 29.30 234.13 28.00Q232.91 26.71 231.19 26.10Q229.47 25.49 227.39 25.49Q225.90 25.49 224.57 25.92Q223.24 26.34 222.14 27.15Q221.44 27.64 220.80 28.30Q220.17 28.96 219.65 29.74ZM252.47 52.39L257.62 52.39L267.97 25.98L261.91 25.98L255.44 45.14L255.05 46.90L254.66 45.14L248.12 25.98L242.07 25.98L252.47 52.39ZM274.95 14.89L274.95 19.75L283.30 19.75L283.30 47.56L274.95 47.56L274.95 52.39L297.19 52.39L297.19 47.56L289.18 47.56L289.18 14.89L274.95 14.89ZM315.55 19.53L309.69 19.53L309.69 25.98L303.30 25.98L303.30 30.35L309.69 30.35L309.69 43.33Q309.69 45.87 310.36 47.68Q311.04 49.49 312.23 50.63Q313.43 51.81 315.10 52.36Q316.77 52.91 318.77 52.91Q319.87 52.91 320.98 52.80Q322.09 52.69 323.12 52.49Q324.15 52.29 325.04 52.01Q325.93 51.73 326.56 51.34L325.93 47.31Q325.49 47.41 324.84 47.55Q324.19 47.68 323.46 47.78Q322.71 47.90 321.90 47.97Q321.09 48.05 320.34 48.05Q319.29 48.05 318.41 47.80Q317.53 47.56 316.89 46.97Q316.26 46.41 315.91 45.42Q315.55 44.43 315.55 42.97L315.55 30.35L325.49 30.35L325.49 25.98L315.55 25.98L315.55 19.53ZM346.17 52.88Q350.02 52.88 352.75 51.37Q355.47 49.85 356.79 47.95L353.66 44.92Q352.44 46.48 350.56 47.33Q348.68 48.17 346.51 48.17Q344.92 48.17 343.59 47.63Q342.26 47.09 341.28 46.12Q340.31 45.19 339.75 44.02Q339.18 42.85 338.92 41.11L338.92 40.99L357.23 40.99L357.23 38.48Q357.23 35.64 356.47 33.25Q355.71 30.86 354.22 29.13Q352.73 27.42 350.54 26.45Q348.34 25.49 345.48 25.49Q342.92 25.49 340.66 26.45Q338.40 27.42 336.69 29.20Q334.99 30.98 334.01 33.50Q333.03 36.01 333.03 39.11L333.03 40.11Q333.03 42.82 333.97 45.15Q334.91 47.49 336.65 49.19Q338.38 50.93 340.81 51.90Q343.24 52.88 346.17 52.88M345.46 30.22Q346.92 30.22 348.03 30.73Q349.15 31.23 349.88 32.06Q350.63 32.91 351.05 34.05Q351.46 35.18 351.46 36.33L351.46 36.72L339.04 36.72Q339.31 35.21 339.87 34.01Q340.43 32.81 341.26 31.96Q342.09 31.13 343.15 30.68Q344.21 30.22 345.46 30.22ZM375.34 48.19Q373.51 48.19 372.29 47.46Q371.07 46.73 370.36 45.51Q369.63 44.34 369.32 42.79Q369.02 41.24 369.02 39.62L369.02 38.77Q369.02 37.18 369.32 35.64Q369.63 34.11 370.39 32.91Q371.09 31.71 372.30 30.97Q373.51 30.22 375.34 30.22Q376.54 30.22 377.58 30.64Q378.61 31.05 379.37 31.76Q380.10 32.47 380.51 33.42Q380.91 34.38 380.91 35.45L386.40 35.45Q386.43 33.25 385.61 31.42Q384.79 29.59 383.33 28.27Q381.86 26.95 379.82 26.22Q377.78 25.49 375.39 25.49Q372.36 25.49 370.08 26.55Q367.80 27.61 366.26 29.42Q364.72 31.23 363.95 33.64Q363.18 36.06 363.18 38.77L363.18 39.62Q363.18 42.36 363.96 44.76Q364.75 47.17 366.28 48.97Q367.80 50.78 370.08 51.84Q372.36 52.91 375.42 52.91Q377.61 52.91 379.60 52.19Q381.59 51.46 383.13 50.20Q384.64 48.97 385.53 47.28Q386.43 45.58 386.40 43.65L380.91 43.65Q380.91 44.65 380.46 45.48Q380.00 46.31 379.25 46.92Q378.47 47.53 377.45 47.86Q376.44 48.19 375.34 48.19ZM399.68 29.74L399.68 14.89L393.85 14.89L393.85 52.39L399.68 52.39L399.68 33.28Q400.10 32.64 400.65 32.13Q401.20 31.62 401.83 31.25Q402.59 30.79 403.50 30.54Q404.42 30.30 405.44 30.30Q406.76 30.30 407.78 30.65Q408.79 31.01 409.50 31.74Q410.18 32.42 410.53 33.52Q410.89 34.62 410.89 36.08L410.89 52.39L416.72 52.39L416.72 36.13Q416.72 33.33 416.05 31.31Q415.38 29.30 414.16 28.00Q412.94 26.71 411.22 26.10Q409.50 25.49 407.42 25.49Q405.93 25.49 404.60 25.92Q403.27 26.34 402.17 27.15Q401.46 27.64 400.83 28.30Q400.20 28.96 399.68 29.74ZM431.13 48.88Q431.13 50.56 432.24 51.72Q433.35 52.88 435.35 52.88Q437.33 52.88 438.46 51.73Q439.60 50.59 439.60 48.88Q439.60 47.17 438.48 45.98Q437.35 44.80 435.35 44.80Q433.30 44.80 432.21 46.00Q431.13 47.19 431.13 48.88ZM453.08 38.99L453.08 39.50Q453.08 42.36 453.81 44.81Q454.54 47.27 455.88 49.05Q457.23 50.85 459.16 51.87Q461.08 52.88 463.50 52.88Q465.80 52.88 467.55 52.04Q469.31 51.20 470.58 49.63L470.85 52.39L476.15 52.39L476.15 14.89L470.31 14.89L470.31 28.44Q469.04 27.03 467.40 26.26Q465.75 25.49 463.55 25.49Q461.11 25.49 459.17 26.48Q457.23 27.47 455.88 29.25Q454.52 31.03 453.80 33.51Q453.08 35.99 453.08 38.99M458.91 39.50L458.91 38.99Q458.91 37.21 459.25 35.63Q459.59 34.06 460.35 32.86Q461.06 31.67 462.22 30.98Q463.38 30.30 465.01 30.30Q466.97 30.30 468.25 31.16Q469.53 32.03 470.31 33.50L470.31 44.85Q469.53 46.34 468.24 47.20Q466.94 48.07 464.97 48.07Q463.35 48.07 462.21 47.40Q461.06 46.73 460.33 45.53Q459.59 44.38 459.25 42.82Q458.91 41.26 458.91 39.50ZM496.19 52.88Q500.05 52.88 502.77 51.37Q505.49 49.85 506.81 47.95L503.69 44.92Q502.47 46.48 500.59 47.33Q498.71 48.17 496.53 48.17Q494.95 48.17 493.62 47.63Q492.29 47.09 491.31 46.12Q490.33 45.19 489.77 44.02Q489.21 42.85 488.94 41.11L488.94 40.99L507.25 40.99L507.25 38.48Q507.25 35.64 506.49 33.25Q505.74 30.86 504.25 29.13Q502.76 27.42 500.56 26.45Q498.36 25.49 495.51 25.49Q492.94 25.49 490.69 26.45Q488.43 27.42 486.72 29.20Q485.01 30.98 484.03 33.50Q483.06 36.01 483.06 39.11L483.06 40.11Q483.06 42.82 484.00 45.15Q484.94 47.49 486.67 49.19Q488.40 50.93 490.83 51.90Q493.26 52.88 496.19 52.88M495.48 30.22Q496.95 30.22 498.06 30.73Q499.17 31.23 499.90 32.06Q500.66 32.91 501.07 34.05Q501.49 35.18 501.49 36.33L501.49 36.72L489.06 36.72Q489.33 35.21 489.89 34.01Q490.45 32.81 491.28 31.96Q492.11 31.13 493.18 30.68Q494.24 30.22 495.48 30.22Z"/></g></g></svg>